<svg width="630" height="111" viewBox="0 0 630 111" fill="none" xmlns="http://www.w3.org/2000/svg">
<path d="M10.2749 20.6526C10.2749 9.79879 19.0737 1 29.9275 1V1V29.4446H10.2749V20.6526Z" fill="#B5CC18" stroke="#B5CC18" stroke-width="0.805851"/>
<rect x="10.2749" y="29.4448" width="19.6526" height="1.93794" fill="#B5CC18" stroke="#B5CC18" stroke-width="0.805851"/>
<path fill-rule="evenodd" clip-rule="evenodd" d="M10.6315 43.9209C10.3974 42.7081 10.2748 41.4555 10.2748 40.1743V31.3823H29.9274V59.8269C25.1684 59.8269 20.8044 58.1353 17.404 55.3207C14.0117 57.5806 8.57201 59.7289 2 58.534C3.81011 57.7582 10.792 53.1036 10.5334 43.7945C10.5647 43.8376 10.5975 43.8798 10.6315 43.9209Z" fill="#B5CC18"/>
<path d="M10.6315 43.9209L10.3208 44.1776L11.0271 43.8446L10.6315 43.9209ZM10.2748 31.3823V30.9794H9.87183V31.3823H10.2748ZM29.9274 31.3823H30.3303V30.9794H29.9274V31.3823ZM29.9274 59.8269V60.2298H30.3303V59.8269H29.9274ZM17.404 55.3207L17.661 55.0103L17.4301 54.8192L17.1806 54.9853L17.404 55.3207ZM2 58.534L1.84128 58.1636L0.610886 58.6909L1.92792 58.9304L2 58.534ZM10.5334 43.7945L10.8592 43.5575L10.0945 42.506L10.1306 43.8057L10.5334 43.7945ZM9.87183 40.1743C9.87183 41.4813 9.9969 42.7594 10.2358 43.9973L11.0271 43.8446C10.7978 42.6567 10.6777 41.4297 10.6777 40.1743H9.87183ZM9.87183 31.3823V40.1743H10.6777V31.3823H9.87183ZM29.9274 30.9794H10.2748V31.7852H29.9274V30.9794ZM30.3303 59.8269V31.3823H29.5245V59.8269H30.3303ZM17.1471 55.631C20.6171 58.5033 25.0711 60.2298 29.9274 60.2298V59.424C25.2656 59.424 20.9918 57.7674 17.661 55.0103L17.1471 55.631ZM1.92792 58.9304C8.62827 60.1486 14.1726 57.9576 17.6274 55.656L17.1806 54.9853C13.8507 57.2037 8.51574 59.3091 2.07208 58.1375L1.92792 58.9304ZM10.1306 43.8057C10.2568 48.349 8.61843 51.7493 6.72782 54.1125C4.8293 56.4857 2.68461 57.8022 1.84128 58.1636L2.15872 58.9043C3.1255 58.49 5.3768 57.0913 7.35708 54.616C9.34528 52.1307 11.0685 48.5491 10.9361 43.7833L10.1306 43.8057ZM10.9421 43.6643C10.9133 43.6294 10.8856 43.5938 10.8592 43.5575L10.2075 44.0315C10.2438 44.0814 10.2816 44.1301 10.3208 44.1776L10.9421 43.6643Z" fill="#B5CC18"/>
<rect x="29.9272" y="1" width="579.42" height="58.8271" fill="#B5CC18"/>
<rect x="29.9272" y="1" width="579.42" height="58.8271" stroke="#B5CC18" stroke-width="0.805851"/>
<path d="M629 20.6526C629 9.79879 620.201 1 609.347 1V1V29.4446H629V20.6526Z" fill="#B5CC18" stroke="#B5CC18" stroke-width="0.805851"/>
<rect width="19.6526" height="1.93794" transform="matrix(-1 0 0 1 629 29.4448)" fill="#B5CC18" stroke="#B5CC18" stroke-width="0.805851"/>
<path d="M629 40.1745C629 51.0284 620.201 59.8271 609.347 59.8271V59.8271V31.3826H629V40.1745Z" fill="#B5CC18" stroke="#B5CC18" stroke-width="0.805851"/>
</svg>
