<svg width="100" height="35" viewBox="0 0 100 35" fill="none" xmlns="http://www.w3.org/2000/svg">
<rect width="100" height="35" rx="17.5" fill="#FF0000"/>
<path d="M23.5 23.3125C25.125 23.3125 26.5 22.75 27.625 21.625C28.75 20.5 29.3125 19.125 29.3125 17.5C29.3125 15.875 28.75 14.5 27.625 13.375C26.5 12.25 25.125 11.6875 23.5 11.6875C21.875 11.6875 20.5 12.25 19.375 13.375C18.25 14.5 17.6875 15.875 17.6875 17.5C17.6875 19.125 18.25 20.5 19.375 21.625C20.5 22.75 21.875 23.3125 23.5 23.3125ZM23.5 30C21.7917 30 20.1771 29.6719 18.6562 29.0156C17.1354 28.3594 15.8073 27.4635 14.6719 26.3281C13.5365 25.1927 12.6406 23.8646 11.9844 22.3438C11.3281 20.8229 11 19.2083 11 17.5C11 15.7708 11.3281 14.1458 11.9844 12.625C12.6406 11.1042 13.5365 9.78125 14.6719 8.65625C15.8073 7.53125 17.1354 6.64062 18.6562 5.98438C20.1771 5.32812 21.7917 5 23.5 5C25.2292 5 26.8542 5.32812 28.375 5.98438C29.8958 6.64062 31.2188 7.53125 32.3438 8.65625C33.4688 9.78125 34.3594 11.1042 35.0156 12.625C35.6719 14.1458 36 15.7708 36 17.5C36 19.2083 35.6719 20.8229 35.0156 22.3438C34.3594 23.8646 33.4688 25.1927 32.3438 26.3281C31.2188 27.4635 29.8958 28.3594 28.375 29.0156C26.8542 29.6719 25.2292 30 23.5 30ZM23.5 28.125C26.4583 28.125 28.9688 27.0885 31.0312 25.0156C33.0938 22.9427 34.125 20.4375 34.125 17.5C34.125 14.5417 33.0938 12.0312 31.0312 9.96875C28.9688 7.90625 26.4583 6.875 23.5 6.875C20.5625 6.875 18.0573 7.90625 15.9844 9.96875C13.9115 12.0312 12.875 14.5417 12.875 17.5C12.875 20.4375 13.9115 22.9427 15.9844 25.0156C18.0573 27.0885 20.5625 28.125 23.5 28.125Z" fill="white"/>
<path d="M49.4091 23V11.3636H50.8182V21.75H56.2273V23H49.4091ZM59.8182 11.3636V23H58.4091V11.3636H59.8182ZM63.1207 11.3636L66.5753 21.1591H66.7116L70.1662 11.3636H71.6435L67.3707 23H65.9162L61.6435 11.3636H63.1207ZM73.456 23V11.3636H80.4787V12.6136H74.8651V16.5455H80.1151V17.7955H74.8651V21.75H80.5696V23H73.456Z" fill="white"/>
</svg>
